<?xml version="1.0" encoding="UTF-8"?>
<svg width="40px" height="40px" viewBox="0 0 800 801" version="1.1" xmlns="http://www.w3.org/2000/svg" xmlns:xlink="http://www.w3.org/1999/xlink">
    <!-- Generator: Sketch 62 (91390) - https://sketch.com -->
    <title>lotus-flower-svgrepo-com</title>
    <desc>Created with Sketch.</desc>
    <g id="Page-1" stroke="none" stroke-width="1" fill="none" fill-rule="evenodd">
        <g id="lotus-flower-svgrepo-com" transform="translate(0.000000, 0.250000)">
            <ellipse id="Oval" fill="#F0ADA0" cx="400" cy="400.213904" rx="400" ry="399.572193"></ellipse>
            <path d="M348.676392,290.330214 C295.904711,250.617647 244.052463,232.19385 241.872323,231.427807 C226.900428,226.177807 210.357334,233.018717 203.485011,247.312834 C202.48394,249.395722 178.86242,299.054813 169.656049,364.418449 C167.260439,381.434492 179.126071,397.165775 196.16167,399.56016 C197.633833,399.76738 199.093951,399.867647 200.53667,399.867647 L354.813972,333.898396 C365.163276,320.176471 362.415685,300.669786 348.676392,290.330214 Z" id="Path" fill="#134857" fill-rule="nonzero"></path>
            <path d="M431.098769,665.291444 C430.149893,648.135027 415.432281,634.993316 398.286938,635.941176 C398.06076,635.953209 394.044433,636.147059 387.186831,636.096257 L305.260974,438.512032 C310.578158,436.318182 315.362687,432.65107 318.898555,427.584225 C328.736617,413.490642 325.273019,394.097594 311.160332,384.268717 C217.00348,318.68984 92.3166488,324.744652 87.0449679,325.036096 C71.1924518,325.909091 58.5372056,338.553476 57.6605996,354.386364 C57.2992505,360.969251 49.8501071,516.683155 144.546306,611.280749 C224.884904,691.529412 349.24652,698.34492 389.147484,698.34492 C396.28212,698.34492 400.717345,698.127005 401.719754,698.070856 C418.891863,697.122995 432.047645,682.446524 431.098769,665.291444 Z" id="Path" fill="#0EB0C9" fill-rule="nonzero"></path>
            <path d="M420.77757,204.136364 C408.953426,193.55615 391.053266,193.55615 379.226445,204.136364 C374.308084,208.533422 258.816916,313.377005 258.816916,447.160428 C258.816916,580.942513 374.308084,685.783422 379.226445,690.180481 C385.139186,695.469251 392.568255,698.113636 400.002677,698.113636 C407.431745,698.113636 414.864829,695.469251 420.778908,690.180481 C425.693255,685.783422 541.188437,580.942513 541.188437,447.160428 C541.188437,313.377005 425.691916,208.533422 420.77757,204.136364 Z" id="Path" fill="#126E82" fill-rule="nonzero"></path>
            <path d="M630.347966,364.418449 C621.141595,299.054813 597.514722,249.395722 596.513651,247.315508 C589.638651,233.02139 573.107602,226.177807 558.126338,231.431818 C555.943522,232.195187 504.097966,250.618984 451.324946,290.331551 C437.585653,300.668449 434.836724,320.175134 445.18469,333.899733 L599.466006,399.868984 C600.908726,399.868984 602.372859,399.770053 603.845021,399.561497 C620.877944,397.167112 632.744914,381.433155 630.347966,364.418449 Z" id="Path" fill="#134857" fill-rule="nonzero"></path>
            <path d="M742.3394,354.382353 C741.462794,338.548128 728.80621,325.906417 712.959047,325.033422 C707.691381,324.743316 582.989829,318.688503 488.843683,384.26738 C474.735011,394.09492 471.271413,413.486631 481.109475,427.582888 C484.645343,432.648396 489.427195,436.315508 494.747056,438.509358 L412.834582,636.061497 C405.932816,636.129679 401.892398,635.949198 401.666221,635.937166 C384.565043,635.020053 369.852784,648.15107 368.903908,665.290107 C367.959047,682.445187 381.114829,697.121658 398.288276,698.066845 C399.285332,698.122995 403.71788,698.340909 410.860546,698.340909 C450.76954,698.340909 575.124465,691.52139 655.457709,611.276738 C750.157923,516.680481 742.704764,360.965241 742.3394,354.382353 Z" id="Path" fill="#126E82" fill-rule="nonzero"></path>
            <path d="M420.77757,204.136364 C414.864829,198.847594 407.430407,196.203209 400.001338,196.203209 L400.001338,698.11631 C407.430407,698.11631 414.86349,695.471925 420.77757,690.183155 C425.691916,685.786096 541.187099,580.94385 541.187099,447.163102 C541.187099,313.377005 425.691916,208.533422 420.77757,204.136364 Z" id="Path" fill="#0EB0C9" fill-rule="nonzero"></path>
        </g>
    </g>
</svg>